<?xml version="1.0" encoding="UTF-8"?><svg id="Layer_2" xmlns="http://www.w3.org/2000/svg" viewBox="0 0 541.424 347.91"><defs><style>.cls-1{fill:#163455;stroke-width:0px;}</style></defs><g id="Layer_1-2"><path class="cls-1" d="M213.113,187.544c.824,1.17,1.271,1.373,1.765,1.977.452.493.635-.044.642-.394.202-4.295.711-11.399.577-14.028-.134-2.629.389-9.208.597-11.735.409-4.955.678-15.068,1.043-22.816.253-2.407,2.743-2.268,4.056-2.377,2.756-.229,5.552-.171,8.318-.007,1.754.103,3.188.464,4.886,1.09,1.52.697,2.185.331,3.177.868.707.382,1.111,1.859.831,2.768-.15.486-.398,1.878-.47,2.407-.305,1.654-.338,2.321-.41,3.985-.111,2.605-.17,5.179-.742,7.758-.357,1.605-.287,3.073-.316,4.749-.007.413-.122,1.902-.122,2.577-.123,2.148-.209,3.215-.207,5.396.002,1.781-.279,2.744-.538,4.518-.137.942-.091,2.11-.316,3.04,0,0-.112,1.051-.341,2.394-.229,1.343-.448,2.711-.245,4.774.153,1.55-.253,2.687-.253,4.251-.016-.017-.371,2.172-.371,3.857.061,1.596,0,3.805-.307,5.278-.793,3.33-.439,6.591-.664,9.963-.113,1.702-.195,3.906-.563,5.195-.246.797-.079,2.982-.123,3.928-.108,2.329-.197,3.536-.377,5.861-.034.453-.05,2.128-.176,3.141-.19,2.027-.744,3.757-1.849,5.741-1.494,2.684-3.852,3.507-6.641,3.728-4.814,0-5.498-2.327-7.785-4.696-4.219-4.37-7.803-9.291-11.323-14.244-2.174-3.06-4.458-6.043-6.614-9.114-.796-1.134-1.322-2.453-2.051-3.637-3.462-5.624-6.96-11.225-10.412-16.855-.258-.419-.792-1.115-1.287-.646,0,0-.235,5.167-.842,7.314-.492,1.741-.283,3.989-.385,5.827-.148,2.672-.174,5.351-.341,8.022-.139,2.229-.515,4.425-.298,6.694.104,1.095-.29,5.221-.425,5.838-.593,2.702-.518,5.456-.809,8.177-.065.599-.021,1.869-.51,2.541-.755.502-1.203.688-2.527.688.012.116-8.002.033-12.375.033-1.013-.063-1.394-.399-2.027-.95-.443-.38-.554-1.346-.573-1.741-.169-3.66-.257-7.323-.35-10.986-.049-1.934-.036-3.869-.093-5.803-.224-7.558-.513-23.004-.419-23.169.016.014.032.028.047.042-.036-2.212-.108-4.425-.098-6.637.011-2.479.05-4.96.158-7.437.243-5.63.546-11.258.805-16.888.134-2.901.095-5.817.371-8.703.362-3.787.343-10.517,1.466-11.174,5.083-2.7,9.39-1.496,11.797-1.116,0,0,1.14.38,1.457.443.317.063,1.014.063,1.014.063.345-.054,1.013.254,1.329.634,3.167,3.99,3.628,6.864,7.368,12.232,1.7,2.361,3.073,4.212,4.387,6.106,2.212,3.189,4.425,6.38,6.559,9.621,1.115,1.693,2.062,3.497,3.085,5.251-.014-.019-.028-.038-.042-.057.747,1.034,1.493,2.068,2.24,3.101-.015-.01.486.681.472.671.675,1.107.949,1.46,1.481,2.632.629,1.387,1.477,2.569,2.448,3.725.601.715,3.608,4.981,4.241,6.311"/><path class="cls-1" d="M52.423,148.377c.722,1.906.749,3.021.894,4.646.103,1.173.064,2.378-.071,3.549-.283,2.471-.266,5.693-1.11,7.971-1.352,3.652-1.628,5.157-4.155,8.406-.842,1.324-3.718,3.072-5.523,4.276-.188.22-3.561,1.151-2.959,2.715.241.602,1.679.842,2.287,1.083-.133.035,2.292,1.387,2.406,1.331,1.498,1.129,2.847,1.317,3.809,2.159,2.527,2.407,4.002,5.466,5.175,8.304,1.134,2.742,1.361,4.903,1.444,7.822.058,2.047-.668,5.309-.722,7.352-.093,3.528-.711,5.889-2.364,9.027-1.018,1.935-2.073,3.752-3.633,5.32-3.484,3.499-7.288,6.406-12.119,7.848-2.507.747-5.032.879-7.602.942-2.065.051-5.048.255-7.114.344-.588.026-1.206.098-1.784.16-1.481.162-2.938.115-4.413.327-.344.05-.777.172-1.033.025-3.339.07-7.256.07-7.256.07,0,0-2.15-.278-2.505-.449C-.279,231.097,0,231.097.16,226.765c.101-2.601-.252-6.067-.137-10.014.192-6.652.366-13.918.5-20.572.169-8.423.336-20.152.581-24.571.086-4.141-.578-9.976-.429-14.115.429-4.173-.198-13.62,0-17.183.259-4.668-.419-6.192.905-7.235,1.324-1.042,4.147-.786,6.258-1.042,3.871-.471,8.771-.833,12.66-.842,4.313-.011,10.293-.284,14.44,1.323,2.57.996,3.823,1.535,6.427,2.451,1.2.422,2.599,1.159,3.682,2.002,3.162,3.439,5.594,5.6,6.734,9.401l.642,2.009ZM16.566,212.588c-.15,2.346,1.292,1.794,2.704,1.61,1.38-.307,4.307-.632,5.522-1.105,2.339-.908,4.264-1.956,6.383-3.682,4.077-3.319,4.464-8.534,2.324-13.757-.225-.549-1.334-1.456-1.833-1.585-1.73-.448-2.904-.721-4.668-.714-2.345.01-4.682.547-7.034.697-1.092.07-1.89.311-2.394,1.551-.336,5.587-.684,10.66-1.004,15.978v1.007ZM17.209,168.326c.926.303,2.051-.188,2.861.061,1.565.121,2.825.371,4.146,0,1.952-.547,2.648-.481,3.731-1.203.842-.361,1.513-.48,2.319-1.201,1.324-1.204,1.584-1.267,2.692-3.326,1.109-2.375,1.446-5.655,1.109-7.897-.562-3.727-3.167-5.225-5.701-5.7-2.492-.895-8.163-.302-10.08.095-.95.126-1.204,0-1.33.759-.317,2.344-.007,11.361,0,16.892,0,.347-.127,1.14.253,1.52"/><path class="cls-1" d="M133.515,155.271c.435,2.822-4.432,1.882-7.189,1.98-3.07.108-6.371.225-9.434.429-4.308.286-10.663-.125-12.197.734-.599.335-.725,3.813-.368,4.971.551,1.79-.005,3.538.098,5.305.052.884-.255,1.82-.082,2.993.127.38.645.244.886.234.52-.02,1.917.056,2.968,0,1.464.065,1.642-.064,3.504-.064h1.748c1.656.329,1.681-.211,3.132.01.097.014.162.016.276.015.389-.021,2.974.488,3.211.602.679.28.996.533,1.444.842.273.155.371.734.447,1.015.53,1.968.636,4.16.513,6.03.003,2.582-.145,4.343.003,6.389.218,3.03-.361,6.061-.963,7.265-.665,1.164-3.891,1.528-5.154,1.427-1.588-.127-3.201-.028-4.8.054-1.989.102-3.266.217-5.252.376-.41.033-1.048.03-1.646.127-.381.126-.444,0-.451.564-.02,1.547.119,3.054.316,4.541.353,2.662.112,5.277-.19,7.923-.148,1.304.061,3.13.198,3.756.19.253,0,.38,1.013.253,6.486-.811,12.832.446,19.231.678,1.191.042,2.391.129,3.573.032,3.043-.249,4.882,1.276,4.803,4.256-.07,2.636-.323,5.267-.477,7.901-.037.624-.213,2.082-.213,2.89-.24,2.642-2.166,2.015-3.81,2.015-3.651.065-9.623-.24-11.534-.32-3.132-.132-6.269-.171-9.404-.208-.876-.011-1.753.121-2.63.189-.411.032-1.524-.093-1.865-.232-3.49-.361-6.351-.163-8.124-.227-1.805.121-3.378-.532-4.271-.495-.757.031-1.12-.165-1.873-.264-.732-.097-1.71,0-3.167-.064-.76,0-1.583-.19-2.344-.38-.76-.19-1.329-1.013-1.329-1.013-.891-1.324-.547-2.646-.471-4.254.324-6.929.55-13.863.886-20.791.207-4.259.508-8.514.839-12.766.475-6.119,1.056-12.229,1.516-18.349.465-6.193.856-12.392,1.244-18.59.158-2.519.128-5.053.356-7.565.213-2.34.76-5.09.823-6.484.02-.433-.063-1.773,1.14-1.963,4.202-.74,7.698-1.168,12.031-2.056,3.971-.813,7.948-1.331,12.005-1.263,2.671.045,5.35-.116,8.013.04,2.764.162,5.522.536,8.265.933,1.421.206,2.805.66,3.969.945,1.66.259,2.28.72,2.103,1.82.177,2.531.047,2.997.049,4.456s-.452,2.218-.515,4.119c-.127,4.053-.914,7.608-.85,9.239"/><path class="cls-1" d="M356.727,231.346c-.824.19-1.583.317-2.162.432-.843.361-1.657.158-2.011.067-.838-.217-.8.141-1.658.054-.87-.089-2.203-.106-3.07,0-1.303.158-2.198.358-3.49.601-.41.077-1.413.102-1.805.241-1.167.413-1.444.479-3.249.316-.482.163-1.444.286-2.287-.118-2.158-2.105-1.42-4.797-1.353-7.329.101-3.776.213-7.557.488-11.324.262-3.598.776-7.177,1.105-10.771.127-1.392.018-2.805.077-4.206.151-3.564.261-7.133.527-10.689.352-4.724.764-9.447,1.288-14.155.421-3.786,1.13-7.493,1.639-11.27.091-.673.577-2.236-.046-2.265-.262-.006-1.212-.063-1.474-.078-1.374-.08-5.992-.555-9.184-1.077-3.408-.557-6.645-1.016-9.889-2.035-1.59-.573-2.398-1.754-2.223-4.183.091-1.259.041-4.799.043-6.064.002-1.312.59-2.841.831-4.044.361-.723.12-1.806.361-2.889.12-1.925.381-2.258,2.603-2.489,1.726-.18,3.424-.61,5.147-.831,2.177-.278,4.369-.43,6.549-.687,1.304-.154,3.057-.114,4.354-.325,4.934-.361,7.701-.241,11.849-.351,1.85.235,3.773-.086,5.662-.175.769-.036,1.537-.195,2.303-.179,4.324.094,8.659.469,12.964.249,2.525-.129,4.653.535,7.139.315,1.068-.095,2.565.195,3.294.887,1.54,1.461,2.927,2.787,2.811,5.161-.3,1.443-.341,2.439-.658,3.453-.317,1.013,0,1.9-.38,3.23-.38,1.33-.241,8.758-1.421,11.117-.986,1.55-4.394,1.619-7.181,1.772-1.874.104-3.744.314-5.619.368-1.104.032-2.214-.153-3.322-.229-.898-.061-2.725-.424-3.021-.178-.274.324-.117,2.27.022,3.299.479,3.565.238,7.073-.346,10.612-.309,1.872-.099,3.827-.161,5.744-.008.24.046,3.541.069,4.98.017,1.098-.257,2.198-.355,3.301-.483,5.416-.726,10.866-1.515,16.237-.414,2.822-.468,5.66-.887,8.44-.716,4.759-.194,8.074-.521,12.821-.11,1.594.253,3.42-.57,3.864-.436.235-1.259.329-1.267.38"/><path class="cls-1" d="M285.549,232.363c-.639.659-2.033.815-3.259,1.454-.601.313-1.702.545-2.379.678-1.506.294-2.433.481-3.954.651-1.437.162-2.639.341-4.685-.51-1.082-.241-2.089-.583-3.008-.842-1.753-.496-1.962-1.469-1.963-3.264,0-2.23.045-4.466.197-6.69.217-3.182.613-6.351.816-9.533.255-3.971.348-7.951.598-11.922.105-1.658.49-3.295.656-4.951.689-6.902.802-13.822.894-20.757.072-5.358.622-10.728,1.27-16.056.608-5.003,1.772-9.939,2.375-14.942.206-1.705-.064-4.081.98-4.364,2.554-.559,4.34-1.111,6.62-1.174,1.042-.179,2.464-.344,3.992-.344,1.857.298,4.745.088,6.189.298,1.204.315,2.166.194,2.481,2.092,0,1.214-.002,2.803,0,4.391.003,3.246.09,6.507.045,9.732-.064,4.577.81,9.21-.508,13.781-.426,1.477-.106,3.16-.199,4.744-.111,1.91-.231,3.824-.468,5.722-.395,3.154-.939,6.29-1.311,9.446-.169,1.432-.138,2.896-.091,4.341.146,4.46-.526,8.832-1.277,13.204-.252,1.466-.073,3.058-.566,4.42-1.106,3.058-.934,6.303-1.714,9.413-.793,3.162-.896,6.326-1.363,9.57-.029.205.123.982-.368,1.412"/><path class="cls-1" d="M202.497,171.331c.014.019.028.038.042.057l-.042-.057Z"/><path class="cls-1" d="M162.842,188.992c-.016-.014-.031-.028-.047-.042l.047.042Z"/><path class="cls-1" d="M478.52,184.473c-.105,2.269-.009,4.754-.457,6.159-.307,1.044-.271,3.056-.552,4.91-.204,1.344-.513,2.505-.746,3.844-.02.114-.652,5.304-1.855,7.591-.963,1.684-1.565,3.85-2.287,4.933,0,0-1.626,2.589-2.196,3.919-1.33,2.914-2.951,3.344-5.56,5.365-.987.765-2.07,1.418-2.985,2.258-3.341,3.069-7.51,4.23-11.743,5.322-1.676.432-3.314,1.052-4.914,1.717-2.03.844-4.11,1.18-6.296,1.159-1.101-.011-2.21.366-3.304.317-1.442-.064-2.934-.185-4.297-.618-3.021-.96-5.955-2.192-8.962-3.199-3.739-1.252-6.559-3.723-9.599-6.097-.81-.631-2.507-2.526-2.946-3.436-1.911-3.966-3.725-6.356-6.072-10.057-1.408-2.222-2.079-4.936-2.928-7.479-.744-2.233-1.358-4.517-1.878-6.814-.63-2.784-1.223-5.587-1.616-8.412-.889-6.394.66-12.565,1.824-18.784.763-4.079,2.465-7.853,3.458-11.854.402-1.617,1.642-3.029,1.873-3.676.316-.887,1.02-1.525,1.35-1.841,0,0,.75-.68,2.409-2.774,1.887-2.381,3.865-4.046,4.267-4.307,2.063-1.347,4.071-2.806,6.241-3.956,2.126-1.127,4.37-2.097,6.659-2.832,2.73-.875,3.498-.614,6.935-1.719.86-.368,3.128-.307,3.13-.307-.019,0,.722.071.815.066.619.07.787.167,1.397.121.94-.07,2.084.55,3.495.488,1.78-.307,3.339-.081,4.968.413.843.24,1.796.382,2.491.435.888.01,1.855.565,3.112,1.069,1.383.554,2.357,1.129,3.515,2.098.927.776,3.634,3.166,4.515,3.658,1.652,1.092,2.729,2.042,4.186,3.435.867.682,1.917,1.218,2.519,2.181.963.963,3.316,3.98,3.851,4.934,1.624,2.896,1.283,2.925,2.812,5.872,1.102,2.124,2.546,4.243,2.943,6.521.591,3.396,2.36,6.483,2.421,9.951.023,1.311.284,7.783.007,9.426M418.781,156.389c-1.077,1.013-1.451,3.342-1.725,3.808-.275.466-.146.967-.267,1.454-.149.594-.34,1.415-.315,2.569,0,2.165-.504,3.035-.528,4.969-.039,3.203-.477,6.423.552,9.567.749,2.287,1.644,4.546,2.157,6.888.995,4.535,2.717,8.752,4.871,12.838,2.074,3.934,5.466,6.684,8.523,9.738.67.67,1.471,1.206,2.179,1.84,2.247,2.015,4.834,3.477,7.585,4.659.989.425,2.041.7,2.754.939,2.678.868,4.874.182,6.494.013,1.203-.12,2.136-1.791,2.669-2.437,1.273-1.546,1.965-2.987,2.611-4.947.976-2.962,1.918-5.852,1.956-9.094.03-2.574.452-3.991.096-6.545.026-.05-.57-1.584-.57-2.914.063-3.737-1.12-5.654-2.202-8.807-.809-2.359-1.811-4.595-3.006-6.804-2.03-3.751-4.542-7.098-7.332-10.277-.319-.363-.696-.702-.915-1.12-1.278-2.44-3.236-3.89-5.039-5.864-.2-.218-1.394-1.393-2.724-2.153-2.09-1.52-3.197-1.44-5.89-1.9-3.167.127-4.294-.427-6.207,0-1.012.225-1.789.869-2.781,1.248-1.162.444-2.068,1.505-2.946,2.332"/><path class="cls-1" d="M116.469,99.188c-2.63.208-3.537.352-6.154-.127-1.206-.221-2.362-.189-3.756.064-1.773.444-4.146.343-4.814-.634-.443-.633-1.314-4.378-1.393-7.396-.134-5.164-1.456-11.259-1.926-16.402-.21-2.308-.677-5.112-1.167-7.402-.49-2.297-.895-4.613-1.286-6.929-.251-1.488-.534-2.971-.794-4.906-.122-.276-.441-.374-.613-.153-.118.152-.123.798-4.173,7.18-2.476,4.319-5.31,8.105-7.365,12.642-.685,1.514-1.531,2.594-2.209,4.112-.083.186-.429,1.049-.583,1.503-.215.773-.816,1.639-1.111,2.228-.712,1.326-.941,1.984-2.144,2.345-1.837.317-2.973-1.401-3.653-2.812-2.523-5.237-4.924-10.534-7.482-15.754-1.189-2.423-2.637-4.72-3.963-7.077-.944-1.678-1.824-3.332-2.764-5.012-.126-.253-.443-.253-.543-.009-.461,1.395-1.051,2.761-1.36,4.189-.908,4.203-1.658,8.44-2.563,12.645-.55,2.555-.27,5.153-.584,7.708-.277,2.252-1.03,8.913-1.03,8.913-.317,3.8.254,8.487-1.144,9.772-1.432,1.529-3.653.676-5.586,1.057-1.34.265-1.555-.009-2.911.208-3.659.588-7.189.031-10.841-1.046-.939-.833-1.294-2.036-1.206-3.446.305-4.878.865-11.412,1.355-16.271.5-4.961,1.512-10.416,2.301-15.343.888-5.537,1.264-8.891,2.208-14.419,1.026-6.012,2.006-12.032,3.022-18.045,1.119-6.631,2.1-13.291,3.46-19.872.566-2.742.497-5.178,1.615-7.783.21-.489,1.256-1.2,1.772-1.154,2.484-.08,3.327-.2,6.094-.08.197.061,1.191-.033,1.951.537.76.57,4.359,6.889,5.855,10.636.847,2.122,1.507,4.325,2.458,6.397,1.068,2.324,2.393,4.528,3.56,6.808.817,1.597,1.484,3.274,2.345,4.845,1.655,3.018,3.416,5.978,5.101,8.98.747,1.331,1.408,2.71,2.132,4.054.246.457.667,1.399.944,1.447.533.092,1.744-3.394,2.56-5.102.473-.989.979-2.187,1.416-3.192,1.491-3.434,2.859-6.925,4.442-10.316,1.756-3.761,3.749-7.411,5.541-11.157,1.823-3.809,3.66-7.621,5.243-11.533C98.129.621,99.584-.036,103.284.002c1.485.016,2.059.566,3.521.973,2.579.719,3.225,2.816,3.419,5.127.323,3.82.494,7.656.897,11.467.196,1.855.827,3.659,1.162,5.505.605,3.322,1.113,6.661,1.703,9.986.469,2.643,1.03,5.271,1.495,7.916.384,2.183.754,4.373.999,6.574.133,1.197.044.934.117,2.142.046.751.475,2.037.614,2.788.212,1.147.166,1.4.326,2.556.628,4.532,1.258,9.065,1.854,13.602.636,4.84,1.232,11.527,1.854,16.368.291,2.338.586,3.029.626,3.535.171,2.179.184,4.069.259,6.403,0,.965.051,2.292-.721,3.167-.914.912-1.815.554-3.293.95l-1.647.127Z"/><path class="cls-1" d="M299.05,3.216c.602.481-.427,2.571-.67,3.251-1.938,5.434-4.506,10.552-7.358,15.577-2.731,4.809-5.034,9.87-7.353,14.9-1.094,2.374-1.97,4.887-2.596,7.424-.443,1.793-.611,3.773-.358,5.595.687,4.952,2.061,9.764,3.874,14.425.848,2.182,1.997,4.244,2.953,6.387,1.634,3.663,3.18,7.365,4.842,11.015,1.289,2.83,2.647,6.551,4.069,9.316,1.044,2.03,2.049,4.017,3.078,6.054.689,1.363,1.078,2.11.562,3.369-1.406.704-2.848.361-4.413.361-2.527.241-4.091.397-7.07.081-2.455-.432-5.055-.025-7.991-.025-1.584,0-1.513-2.069-2.164-3.246-1.544-2.791-2.892-6.614-4.501-9.365-1.082-1.851-1.364-3.292-2.101-5.333-.498-1.379-.957-3.544-1.622-5.018-.946-2.371-1.71-6.714-2.66-6.651-.76,0-2.457,5.892-3.66,8.901-.843,2.046-1.777,4.084-2.768,5.897-1.66,3.033-1.196,4.107-3.009,7.057-.022-.085-1.802,3.258-1.805,3.25.002.002-.773.899-.722.962-1.621,3.107-4.044,2.884-7.802,2.633-3.385-.225-6.816.118-10.217.341-.927.061-.995-.085-2.8-.085-3.421.491-1.224-3.676-.166-5.845,4.937-10.12,9.858-21.167,14.799-31.284.673-1.378,1.424-2.718,2.147-4.071.722-1.348,2.114-4.488,2.354-6.774-.014-.065.167-2.637.206-5.092.03-1.88-.652-3.89-1.454-5.644-3.371-7.374-6.975-14.642-10.348-22.016-1.408-3.081-2.556-6.295-3.616-9.516-.537-1.631-.768-3.406-.838-5.129-.033-.81-.611-1.543.286-2.159l1.564-.385c.775.16,1.351.168,2.046,0,2.527-.121,4.039-.359,6.257,0,1.926-.241,3.602-.356,3.611-.361,2.286-.53,4.573-.479,4.934,1.203,1.179,3.923,3.021,7.251,5.048,10.417,2.045,3.37,2.883,5.802,4.117,8.931.192.488.903,3.42,1.9,3.167,1.393-.317,4.702-10.819,7.039-15.521,1.012-2.036,1.985-4.091,2.999-6.126,1.521-3.034,2.889-2.7,5.416-2.231.25.117,1.077,0,1.774.19.886.253,1.646,0,2.343,0,2.888.12,3.644-.245,6.549.331.378.075,4,.067,5.295.842"/><path class="cls-1" d="M162.442,98.374c-.155.444-.38,1.647-1.63,1.714-4.07.087-10.404-.067-14.268-.004-1.419-.09-3.035-.127-3.956-1.805-.921-1.678.369-3.02.806-4.491.971-3.271,2.267-6.446,3.293-9.702,1.69-5.36,3.237-10.764,4.905-16.13,2.226-7.158,4.589-14.274,6.743-21.453,1.771-5.903,2.965-11.978,5.193-17.747.919-2.38,1.94-4.721,2.845-7.106.958-2.526,2.226-5.026,2.604-7.647.237-1.638,1.032-2.96,1.33-4.485.186-.956.321-1.933.36-2.906.09-2.251,1.154-3.852,3.169-4.758,2.754-1.238,5.644-1.034,7.924.248.338.24.955.669,1.33.76,1.201.29,1.463,1.316,1.803,2.346,3.415,10.338,6.872,20.662,10.257,31.01.918,2.808,1.431,5.759,2.478,8.513,2.628,6.914,4.296,14.106,6.364,21.18,1.608,5.499,2.712,9.842,5.218,15.009,1.632,3.365,3.082,7.922,4.091,11.553.647,2.324,1.819,4.552.417,6.783-.289.461-2,1.082-3.14,1.271-1.561.244-2.1.138-3.293.129-2.151-.017-2.917.129-5.067-.002-1.767-.108-3.927.317-5.885.697-3.609.089-3.679-1.393-4.452-3.342-.722-2.889-1.894-4.192-2.407-6.98-.264-1.436-.791-3.496-1.169-5.123-.029-.128-.066-.177-.303-.199-3.959-.378-8.921-.126-12.766-.19-2.819-.047-5.695.54-8.535,1.002-.125.02-.18.129-.199.184-.913,2.681-1.861,5.416-2.752,8.169-.103.318-.767,1.665-1.308,3.502M178.05,42.54c-1.116,1.515-5.847,18.72-6.777,24.339-.076.463-.097.852-.148,1.139-.057.319-.093.343.14.405.397.107,1.99.3,2.641.119,2.228-.618,4.378-.793,6.714-.633,1.575.108,3.938-.051,4.901-.316.036-.01.104-.017.085-.137-.109-.715-.188-1.702-.489-2.967-.542-2.199-.984-4.127-1.653-6.293-.938-3.037-1.963-6.048-2.888-9.089-.519-1.708-1.019-4.088-1.571-6.215-.083-.077-.544-.962-.955-.352"/><path class="cls-1" d="M395.916,86.081c.014.074.024.149.026.228.028.698-.48,1.75-1.039,2.131-.881.601-4.409-.81-6.353-1.608-2.561-1.052-4.491-1.841-6.523-2.606-13.073-4.931-26.993-11.902-39.498-17.856-1.421-1.885-3.346-1.186-4.057-2.451.072-.927.133-2.315.926-2.852.217-.147.261-.169.523-.227.341-.074.617-.045.959.049.365.101.761.219,1.111.361,1.172.479,2.279.979,3.514,1.329,1.316.371,2.662.673,3.91,1.26,2.095.986,4.002,2.173,6.105,3.063,4.016,1.702,8.434,3.273,12.601,5.226,6.515,3.054,12.992,4.77,19.965,8.81,1.084.629,2.237,1.391,3.361,2.024,1.165.657,2.511.982,3.574,1.826.427.339.795.764.895,1.293"/><path class="cls-1" d="M389.874,37.987c5.023,2.866,3.731,11.388-.712,12.389-1.071.241-2.176-.24-3.178-.612-.726-.27-1.897-.518-2.162.48-.084.319.056.684.048,1.013-.008.415-.108.818-.11,1.236-.019,1.825,1.013,3.322,2.443,4.428,1.696.756,3.436,1.668,5.592,1.964,1.814.248,4.533.32,5.681-.27,2.192-1.12.495-1.959.679-3.583.118-1.043.801-1.799,1.581-2.424.787-.629,1.359-1.377,2.477-1.344.439.012.795.22,1.209.328.4.105.764.097,1.16.25,1.033.404,2.078,1.391,2.251,2.529.131.864-.1,1.712-.592,2.381-.432.59-.611,1.372-1.114,1.911-.594.642-1.557.537-2.306.881-.714.326-1.091,1.076-1.2,1.832-.256,1.766.784,3.741,2.434,4.525,2.184,1.035,4.823.441,7.019-.054,1.247-.279,2.484-.616,3.753-.818.512-.083,1.163-.026,1.578-.353.443-.345.645-.869,1.17-1.157,1.87-1.029,4.7.463,4.718,2.687.016,1.821-1.94,4.337-3.878,4.425-.9.041-1.294-.812-2.062-1.038-.666-.195-1.148.359-1.718.549-.682.227-1.352.389-2.028.69-1.473.658-2.886,1.436-4.26,2.274-2.925,1.784-5.673,3.829-8.442,5.835-1.085.784-2.176,1.524-3.283,2.279-.588.401-1.067,1.409-1.932.943-.422-.228-.835-.595-1.202-.93-.345-.316-.662-.634-1.077-.858-.309-.168-.649-.239-.957-.407-.879-.475-1.741-.977-2.624-1.44-1.782-.939-3.592-1.823-5.407-2.699-3.767-1.817-7.577-4.005-11.406-5.815-3.645-1.721-7.538-2.803-11-4.6-3.773-1.958-7.614-3.243-11-4.6-1.021-.409-2.352-.803-3.531-1.129-2.177-.6-4.39-.461-5.317-2.973.752-5.965-2.181-11.827-4.857-17.695-.724-.303-1.375-.787-2.033-1.2-1.317-.825-1.945-2.361-1.297-3.793.286-.63.549-1.322.915-1.912.201-.324.48-.63.76-.905.478-.471,1.199-.697,1.852-.748,1.003-.081,2.007.177,2.908.647.451.235.878.523,1.274.847.258.211,1.035.804,1.074,1.118.14,1.112.415,2.218-.023,3.344.902,2.409,2.84,4.638,5.03,5.656,1.157.537,2.484.595,3.69.307.983-.234,2.396-.789,3.083-1.538.264-.287.486-.562.692-.878.394-.61.798-1.251.979-1.967.148-.592.394-1.641.14-2.23-.196-.452-.459-.856-.624-1.328-.165-.465-.256-1.145-.234-1.63.091-1.938,1.93-3.515,3.717-3.941.808-.194,1.82-.408,2.598.055,1.246.744,1.96,2.538,2.053,3.904.104,1.556-1,5.548-3.473,5.444.611,2.953,3.105,5.508,5.751,6.847,1.482.751,3.225,1.203,4.845.81.782-.19,1.489-.58,2.068-1.126.372-.355.43-.718.697-1.12.268-.405.669-.64.397-1.197-.204-.417-.686-.769-.95-1.177-.384-.591-.762-1.186-1.108-1.799-.44-.779-1.429-1.969-1.384-2.884.032-.664.484-1.163.825-1.675.302-.457.583-.877,1.022-1.223.774-.609,1.75-.857,2.735-.903,1.057-.05,2.12.114,3.166.289.525.089,1.05.189,1.576.273.249.041,1.215.325,1.415.182,1.669-1.169,2.655-3.132,3.749-4.796.748-1.139,2.494-4.155,4.157-2.906.203.151.596.448.72.66.147.253.053.554.112.885.086.494.265.97.36,1.481.158.839.407,1.61.63,2.412.204.733.054,1.655-.021,2.388-.077.785-.201,1.561-.279,2.345-.023.245-.254,1.809-.002,1.952"/><path class="cls-1" d="M455.386,321.994c-.533-.978-1.237-1.773-1.897-2.319-.769-.614-2.26-1.523-4.82-1.434-4.445.155-6.827,3.3-6.716,6.5.124,3.556,3.062,5.091,5.046,5.841l2.309.88c1.587.586,3.471,1.517,3.556,3.935.083,2.382-1.568,4.042-3.773,4.119-1.422.05-2.438-.484-3.143-1.314-.595-.727-1.06-1.815-1.101-2.988l-3.564.908c.199,1.63.823,3.175,2.152,4.553,1.256,1.309,2.928,2.283,5.666,2.187,4.445-.155,7.537-3.36,7.38-7.876-.095-2.703-1.391-5.149-5.827-6.775l-2.415-.877c-2.344-.843-2.636-2.079-2.661-2.79-.054-1.529,1.038-2.885,3.243-2.962,1.031-.036,1.822.186,2.59.764.549.444.887.93,1.119,1.456l2.856-1.808ZM424.339,340.38c-5.084.178-8.841-3.393-9.024-8.656-.184-5.263,3.314-9.087,8.399-9.265,5.084-.178,8.841,3.394,9.024,8.656.184,5.263-3.314,9.088-8.399,9.265M423.597,319.116c-7.112.249-12.153,5.765-11.909,12.735.243,6.969,5.656,12.12,12.768,11.872,7.112-.248,12.153-5.765,11.909-12.734-.243-6.97-5.656-12.121-12.768-11.873M408.221,323.498l-.119-3.413-14.508.506.119,3.414,5.44-.19.709,20.304,3.627-.127-.709-20.304,5.441-.19ZM383.407,320.947l.828,23.718,3.627-.127-.828-23.717-3.627.126ZM364.952,324.938l1.244-.043c1.778-.062,4.954.147,5.071,3.49.131,3.769-3.919,4.017-4.914,4.052l-1.138.04-.263-7.539ZM361.208,321.722l.828,23.718,3.627-.127-.339-9.707.64-.023,7.131,9.471,4.374-.153-7.75-9.876c3.139-.822,5.15-3.384,5.031-6.798-.036-1.031-.347-3.832-3.004-5.484-1.565-.978-3.426-1.269-6.307-1.168l-4.231.147ZM342.749,325.714l1.245-.044c1.778-.062,4.954.148,5.07,3.49.132,3.769-3.918,4.017-4.914,4.052l-1.137.04-.264-7.538ZM339.006,322.498l.828,23.717,3.627-.126-.339-9.708.64-.022,7.131,9.47,4.373-.153-7.75-9.876c3.14-.821,5.151-3.384,5.032-6.797-.036-1.031-.348-3.833-3.004-5.485-1.565-.978-3.427-1.269-6.307-1.168l-4.231.148ZM312.245,323.432l.533,15.255c.065,1.884.536,4.146,2.419,6.074,1.292,1.308,3.439,2.657,6.675,2.544,3.236-.113,5.284-1.608,6.482-3.003,1.744-2.055,2.055-4.344,1.989-6.229l-.532-15.254-3.627.126.499,14.295c.045,1.28.064,2.846-.604,4.115-.669,1.234-2.226,2.534-4.323,2.608-2.098.073-3.742-1.116-4.495-2.3-.755-1.22-.845-2.783-.89-4.063l-.499-14.294-3.627.126ZM294.547,337.259l2.275-.08c1.28-.045,2.742.011,3.771.936.626.584,1.014,1.496,1.047,2.456.038,1.067-.39,2.078-1.081,2.672-.899.779-2.528,1.014-3.559,1.05l-2.205.077-.248-7.111ZM294.205,327.48l1.245-.044c1.031-.036,2.066.035,2.911.789.772.685.908,1.535.933,2.246.028.818-.04,1.924-.83,2.735-.825.847-2.03.996-2.919,1.027l-1.103.039-.237-6.792ZM290.459,324.193l.828,23.717,5.939-.207c1.813-.063,4.753-.486,6.568-2.543,1.096-1.249,1.475-2.615,1.416-4.322-.051-1.458-.393-3.084-1.72-4.39-1.216-1.168-2.687-1.508-3.118-1.6.525-.268,1.22-.755,1.721-1.698.537-.944.645-1.909.613-2.834-.068-1.956-.726-3.464-2.048-4.628-1.616-1.403-3.55-1.727-6.608-1.62l-3.591.125Z"/><path class="cls-1" d="M526.064,282.56l3.382-8.164,3.801,7.913-7.183.251ZM537.513,291.31l3.911-.137-12.113-24.711-10.929,25.516,3.912-.137,2.396-5.815,10.134-.354,2.689,5.638ZM511.097,268.486l-3.627.127.828,23.717,3.627-.127M481.833,293.254l-.579-16.57,17.84,17.427-.879-25.175-3.627.127.574,16.428-17.84-17.428.884,25.318,3.627-.127ZM458.919,273.655l1.245-.044c1.778-.062,4.953.148,5.07,3.49.132,3.769-3.918,4.018-4.914,4.052l-1.138.04-.263-7.538ZM455.175,270.439l.829,23.717,3.627-.126-.339-9.708.64-.022,7.13,9.47,4.374-.153-7.75-9.875c3.14-.822,5.151-3.385,5.032-6.798-.036-1.031-.348-3.833-3.004-5.485-1.565-.977-3.427-1.268-6.307-1.168l-4.232.148ZM436.997,291.936c-5.085.178-8.841-3.394-9.025-8.656-.183-5.263,3.314-9.088,8.399-9.265,5.085-.178,8.841,3.394,9.025,8.656.184,5.263-3.314,9.088-8.399,9.265M436.255,270.672c-7.112.249-12.153,5.765-11.91,12.734.244,6.97,5.657,12.121,12.769,11.873,7.112-.249,12.152-5.765,11.909-12.734-.243-6.97-5.657-12.121-12.768-11.873M419.024,271.701l-11.877.415.829,23.717,3.627-.126-.38-10.881,7.965-.278-.119-3.414-7.965.278-.21-6.009,8.249-.288-.119-3.414ZM394.319,272.564l.828,23.717,3.627-.126-.829-23.718-3.626.127ZM377.041,273.167l.828,23.718,10.597-.37-.12-3.414-6.969.244-.709-20.304-3.627.126ZM356.71,288.474l3.382-8.164,3.801,7.913-7.183.251ZM368.159,297.224l3.911-.137-12.113-24.712-10.929,25.517,3.912-.137,2.396-5.815,10.134-.354,2.689,5.638ZM343.907,275.606c-2.108-1.244-4.22-1.561-6.389-1.486-3.271.115-6.089.996-8.461,3.393-1.926,1.954-3.634,5.04-3.481,9.414.117,3.342,1.253,6.329,4.118,8.828,1.432,1.267,4.203,3.128,8.506,2.978,1.635-.057,4.112-.5,6.445-2.005l-.151-4.303c-1.306,1.327-3.46,2.862-6.305,2.962-5.049.176-8.811-3.573-8.986-8.587-.183-5.227,3.169-9.153,8.325-9.333,1.351-.048,3.814.116,6.528,2.406l-.149-4.267ZM291.77,276.145l-3.627.127.828,23.717,3.627-.126-.381-10.917,10.17-.355.381,10.916,3.627-.126-.828-23.718-3.627.127.328,9.387-10.17.355-.328-9.387ZM279.674,280.128c-.533-.979-1.237-1.773-1.897-2.319-.769-.614-2.261-1.524-4.821-1.434-4.445.155-6.827,3.3-6.715,6.5.124,3.556,3.061,5.091,5.046,5.841l2.309.88c1.587.586,3.471,1.517,3.555,3.935.083,2.382-1.568,4.042-3.772,4.119-1.423.05-2.438-.485-3.144-1.314-.595-.727-1.06-1.815-1.101-2.988l-3.564.908c.199,1.63.823,3.175,2.153,4.553,1.256,1.309,2.928,2.283,5.666,2.187,4.445-.155,7.537-3.36,7.379-7.876-.094-2.703-1.39-5.15-5.826-6.775l-2.416-.877c-2.344-.843-2.636-2.079-2.661-2.79-.053-1.53,1.039-2.885,3.243-2.962,1.032-.036,1.823.186,2.59.764.55.444.887.93,1.119,1.456l2.857-1.808ZM258.556,277.305l-13.086.457.829,23.717,13.085-.457-.119-3.413-9.459.33-.26-7.467,9.174-.321-.12-3.413-9.174.32-.209-6.009,9.458-.33-.119-3.414ZM227.012,281.753l1.244-.043c1.778-.062,4.954.147,5.071,3.49.131,3.769-3.919,4.017-4.914,4.052l-1.138.039-.263-7.538ZM223.268,278.537l.828,23.718,3.627-.127-.339-9.707.64-.023,7.131,9.471,4.374-.153-7.75-9.876c3.139-.822,5.15-3.384,5.031-6.798-.036-1.031-.347-3.833-3.004-5.484-1.565-.978-3.426-1.269-6.307-1.169l-4.231.148ZM215.858,278.796l-11.876.415.828,23.717,3.627-.126-.38-10.881,7.965-.278-.119-3.414-7.965.278-.21-6.009,8.249-.288-.119-3.414Z"/></g></svg>