<?xml version="1.0" encoding="UTF-8"?><svg id="Layer_2" xmlns="http://www.w3.org/2000/svg" xmlns:xlink="http://www.w3.org/1999/xlink" viewBox="0 0 30.4 37.946"><defs><style>.cls-1{fill:#163455;}.cls-1,.cls-2{stroke-width:0px;}.cls-3{clip-path:url(#clippath);}.cls-2{fill:none;}</style><clipPath id="clippath"><rect class="cls-2" width="30.4" height="37.946"/></clipPath></defs><g id="Layer_1-2"><g class="cls-3"><path class="cls-1" d="M30.374,6.072c.059.465.006.716-.049,1.087-.04.268-.114.536-.207.791-.196.537-.365,1.259-.676,1.724-.499.744-.642,1.066-1.382,1.657-.259.251-.997.488-1.465.66-.054.039-.859.067-.808.449.021.148.33.278.453.365-.031,0,.439.434.467.427.275.333.567.448.737.688.436.674.602,1.438.711,2.136.107.674.042,1.17-.097,1.828-.097.461-.434,1.152-.556,1.606-.21.784-.476,1.279-1.014,1.893-.332.378-.665.728-1.099.995-.967.596-1.974,1.042-3.133,1.105-.601.033-.712-.029-1.29-.153-.465-.1-.637-.165-1.104-.257-.133-.025-.275-.043-.408-.06-.34-.043-.663-.132-1.005-.164-.08-.007-.183-.003-.232-.05-.751-.163-1.088-.321-1.088-.321,0,0-.466-.178-.536-.236-.947-.347-.885-.332-.616-1.293.162-.577.269-1.371.507-2.248.401-1.478.83-3.094,1.217-4.576.491-1.876,1.158-4.491,1.45-5.467.242-.922.407-2.263.662-3.181.32-.911.688-3.058.923-3.845.309-1.03.239-1.408.592-1.57.352-.162.891.039,1.377.095.891.103,1.546.241,2.417.447.965.23,1.35.397,2.192.979.522.361.773.549,1.307.894.245.159.519.399.716.645.522.94.951,1.554,1.002,2.466l.035.484ZM19.694,18.922c-.14.464.211.432.55.468.338.006,1.038.094,1.347.052.596-.081,1.102-.218,1.692-.501,1.135-.545,1.377-1.592,1.171-2.927-.022-.141-.312-.561-.421-.619-.377-.201-.413-.329-.825-.426-.546-.129-1.121-.134-1.676-.231-.259-.045-.458-.033-.644.227-.391,1.283-.798,2.644-1.17,3.864l-.024.093ZM22.391,8.737c.191.117.402.058.653.141.354.115.587.167.912.154.48-.018.637.036.927-.071.214-.036.375-.026.601-.148.372-.204.435-.205.805-.618.387-.486.646-1.224.692-1.759.077-.89-.441-1.38-.999-1.63-.524-.344-1.865-.521-2.329-.536-.226-.023-.277-.066-.348.102-.203.523-.631,2.619-.935,3.894-.019.08-.092.256-.026.364"/><path class="cls-1" d="M12.664,21.808c-.347.115-.464.164-.831.19-.169.012-.323.055-.502.134-.224.116-.546.183-.667.08-.08-.067-.317-.518-.424-.903-.183-.658-.556-1.396-.783-2.04-.102-.289-.255-.633-.394-.911-.139-.278-.268-.561-.394-.846-.082-.182-.167-.363-.264-.602-.025-.032-.071-.034-.087,0-.011.024.009.107-.331,1.061-.195.638-.454,1.218-.585,1.869-.044.218-.123.385-.165.602-.005.027-.024.149-.03.212-.005.107-.058.238-.078.323-.054.194-.063.287-.213.373-.237.102-.445-.08-.581-.238-.506-.588-.998-1.187-1.509-1.771-.237-.271-.505-.517-.759-.776-.18-.183-.352-.366-.531-.55-.026-.028-.068-.018-.074.017-.017.194-.053.389-.048.583.012.57.047,1.139.06,1.708.008.347.128.671.168,1.009.035.298.147,1.178.147,1.178.079.498.305,1.081.159,1.292-.144.245-.469.21-.717.323-.171.079-.209.051-.384.124-.473.198-.965.245-1.49.229-.153-.075-.239-.218-.272-.401-.115-.637-.249-1.494-.339-2.134-.091-.653-.13-1.387-.181-2.046-.058-.74-.115-1.183-.165-1.924-.055-.806-.116-1.611-.172-2.416-.061-.889-.143-1.776-.171-2.666-.011-.371-.098-.681-.032-1.053.013-.07.131-.196.201-.208.332-.093.441-.137.817-.214.028,0,.158-.044.279.004.12.047.806.738,1.127,1.168.181.244.34.505.534.739.218.262.467.501.696.754.161.178.305.371.47.543.319.332.651.653.973.982.143.146.276.3.416.449.048.05.134.157.173.154.075-.006.126-.494.181-.741.032-.143.061-.313.088-.457.09-.49.162-.984.267-1.472.115-.542.266-1.077.387-1.617.123-.55.248-1.101.335-1.656.078-.492.252-.625.751-.744.2-.047.294.004.504.007.369.006.523.254.623.544.166.479.311.965.487,1.441.086.231.228.442.333.667.187.406.362.818.548,1.225.147.323.307.642.454.965.121.268.241.536.344.811.057.149.036.118.085.271.03.094.129.245.171.337.066.14.067.174.126.317.229.56.459,1.121.684,1.683.24.6.534,1.438.773,2.038.114.291.175.369.197.433.093.274.155.516.24.813.031.124.08.292.004.43-.094.148-.226.132-.412.233l-.217.071Z"/><path class="cls-1" d="M19.784,37.206c.009.014.017.029.023.046.06.143.037.402-.05.525-.137.194-.983.175-1.451.16-.616-.02-1.08-.034-1.563-.035-3.112-.009-6.558-.377-9.631-.644-.443-.282-.79.014-1.037-.195-.057-.199-.153-.493-.029-.667.034-.047.041-.055.091-.088.065-.042.125-.057.204-.064.084-.008.176-.014.26-.012.282.009.551.027.836.003.304-.025.608-.067.914-.042.514.042,1.004.141,1.512.163.971.042,2.015.025,3.036.107,1.597.129,3.082-.018,4.851.281.275.047.575.115.859.16.294.046.6.009.888.102.115.037.225.098.287.2"/><path class="cls-1" d="M14.774,27.647c1.271.206,1.666,2.084.817,2.639-.204.134-.472.12-.71.121-.172,0-.436.039-.413.268.007.073.065.139.089.208.03.087.041.179.073.266.138.382.47.614.855.733.413.025.847.08,1.319-.026.398-.09.971-.287,1.164-.5.37-.404-.049-.447-.138-.8-.056-.227.027-.437.141-.629.115-.192.176-.393.412-.473.092-.032.183-.016.278-.026.091-.009.166-.039.261-.038.247.003.542.128.667.352.095.17.112.364.062.542-.044.157-.02.334-.083.486-.074.18-.283.233-.413.363-.123.124-.143.31-.107.476.084.388.455.719.86.754.537.046,1.041-.284,1.46-.559.238-.155.47-.322.719-.463.1-.057.24-.096.302-.196.065-.107.066-.232.153-.333.31-.36,1.017-.27,1.194.192.145.379-.067,1.056-.464,1.226-.184.078-.333-.069-.511-.056-.154.011-.211.165-.315.249-.125.1-.252.186-.369.302-.256.252-.491.524-.712.806-.471.6-.884,1.241-1.305,1.875-.165.249-.335.488-.507.732-.092.129-.113.377-.33.347-.106-.014-.22-.059-.323-.1-.097-.039-.187-.081-.291-.095-.078-.011-.154.001-.232-.01-.22-.031-.439-.068-.659-.096-.445-.057-.892-.1-1.338-.142-.928-.085-1.893-.244-2.833-.323-.894-.075-1.791.003-2.653-.101-.94-.115-1.841-.083-2.653-.102-.245-.006-.553.016-.824.04-.501.044-.952.246-1.341-.206-.308-1.302-1.377-2.296-2.393-3.312-.175-.006-.348-.056-.518-.091-.339-.07-.589-.341-.566-.69.011-.154.012-.319.042-.47.017-.084.051-.169.088-.248.063-.136.196-.239.328-.301.203-.095.432-.119.657-.092.112.014.224.041.332.078.07.024.278.087.311.149.116.221.259.43.256.699.376.432.954.746,1.49.788.283.022.564-.07.793-.224.187-.125.439-.351.523-.561.033-.081.058-.155.076-.237.035-.158.069-.323.051-.487-.015-.135-.046-.373-.145-.476-.076-.079-.162-.143-.233-.228-.071-.084-.143-.219-.176-.322-.132-.411.128-.883.468-1.112.153-.103.348-.227.546-.191.318.058.607.377.732.654.144.317.225,1.235-.299,1.407.357.568,1.077.906,1.733.979.368.041.767,0,1.074-.209.148-.1.265-.237.343-.396.05-.103.034-.183.058-.288.025-.105.09-.185-.01-.28-.075-.071-.203-.107-.29-.172-.126-.093-.252-.188-.372-.289-.152-.128-.451-.299-.513-.493-.045-.141.01-.28.041-.414.028-.119.054-.228.118-.335.114-.187.298-.315.5-.401.217-.093.451-.142.683-.187.116-.022.234-.042.35-.066.055-.011.279-.027.309-.072.257-.374.31-.86.408-1.293.067-.296.196-1.061.641-.93.054.016.159.047.201.082.051.041.054.111.093.175.056.097.131.182.19.281.098.163.211.304.32.454.099.137.14.341.182.5.045.169.079.341.124.511.014.053.088.397.152.407"/></g></g></svg>