<?xml version="1.0" standalone="no"?>
<!DOCTYPE svg PUBLIC "-//W3C//DTD SVG 20010904//EN"
 "http://www.w3.org/TR/2001/REC-SVG-20010904/DTD/svg10.dtd">
<svg version="1.0" xmlns="http://www.w3.org/2000/svg"
 width="480.000000pt" height="480.000000pt" viewBox="0 0 480.000000 480.000000"
 preserveAspectRatio="xMidYMid meet">
<metadata>
Created by potrace 1.14, written by Peter Selinger 2001-2017
</metadata>
<g transform="translate(0.000000,480.000000) scale(0.100000,-0.100000)"
fill="#000000" stroke="none">
<path d="M0 2400 l0 -2400 2400 0 2400 0 0 2400 0 2400 -2400 0 -2400 0 0
-2400z m3490 1631 c245 -41 390 -76 459 -110 64 -31 291 -184 355 -237 41 -35
85 -102 130 -199 40 -85 46 -108 56 -214 12 -115 2 -186 -45 -332 -44 -137
-50 -150 -106 -234 -102 -153 -168 -206 -306 -250 -130 -41 -153 -52 -153 -75
0 -11 12 -27 28 -37 15 -10 66 -54 115 -98 81 -74 90 -86 118 -159 60 -156 74
-303 40 -436 -34 -134 -116 -354 -151 -405 -63 -93 -188 -207 -275 -252 -101
-52 -174 -80 -261 -98 -100 -21 -150 -19 -298 15 -72 16 -187 39 -256 50 -171
28 -392 108 -407 146 -3 9 0 39 6 68 7 28 30 129 52 224 22 96 70 289 108 430
38 141 104 390 146 552 42 162 94 360 116 440 21 80 48 197 60 260 11 63 45
216 75 340 30 124 70 295 90 380 48 208 59 236 92 249 15 5 29 10 32 10 3 1
84 -12 180 -28z m-1932 -1279 c10 -10 35 -67 56 -127 21 -61 56 -146 76 -190
66 -138 178 -388 203 -450 13 -33 51 -127 84 -210 193 -480 231 -591 213 -624
-9 -17 -116 -55 -185 -66 -22 -4 -57 -13 -78 -21 -80 -30 -107 -11 -143 101
-9 28 -25 70 -35 95 -9 25 -34 88 -55 140 -20 52 -51 127 -69 165 -18 39 -47
102 -65 140 l-32 70 -44 -125 c-45 -129 -94 -295 -113 -388 -16 -79 -27 -94
-63 -90 -26 2 -48 23 -136 128 -127 150 -292 321 -304 314 -10 -7 -9 -183 2
-294 11 -106 44 -326 61 -403 10 -42 10 -63 3 -75 -6 -9 -56 -32 -110 -51 -77
-26 -117 -34 -179 -35 -76 -1 -80 0 -91 24 -30 62 -70 434 -118 1090 -38 508
-41 577 -26 595 7 8 38 22 69 31 31 9 64 18 73 20 24 7 104 -70 191 -181 122
-158 415 -471 428 -458 4 5 19 73 34 153 14 80 37 192 50 250 28 121 70 319
80 370 17 95 47 119 148 120 42 0 62 -5 75 -18z"/>
<path d="M3542 3463 c-16 -28 -133 -544 -130 -568 8 -54 331 -74 425 -26 71
36 114 81 149 156 83 180 59 302 -74 373 -72 38 -183 69 -286 78 -67 6 -75 5
-84 -13z"/>
<path d="M3237 2048 c-19 -18 -40 -73 -90 -238 -104 -342 -103 -338 -84 -358
22 -21 235 -30 316 -12 77 16 209 81 249 122 47 49 72 130 72 230 -1 111 -21
155 -92 202 -47 31 -66 37 -173 51 -66 9 -132 18 -146 21 -19 4 -34 -2 -52
-18z"/>
</g>
</svg>
